<svg width="202" height="13" viewBox="0 0 202 13" fill="none" xmlns="http://www.w3.org/2000/svg">
<path d="M169.475 12.1145C139.117 12.1145 110.513 11.2034 104.546 7.74101C102.616 6.46541 101.388 5.00758 100.861 3.73198C100.159 5.18981 99.1065 6.46541 97.1762 7.74101C90.3324 11.9323 90.3324 11.9323 25.0529 11.9323C17.8581 11.9323 9.78588 11.9323 1.01175 11.9323C0.485303 11.9323 0.134338 11.5678 0.134338 11.2034C0.134338 10.8389 0.485303 10.4744 0.836269 10.4744C9.78588 10.4744 17.6826 10.4744 24.8774 10.4744C89.8059 10.4744 89.8059 10.4744 96.2988 6.46541C98.5801 5.00758 99.9839 3.18529 99.9839 0.816318C100.159 0.45186 100.51 0.0874023 100.861 0.0874023C101.212 0.0874023 101.563 0.45186 101.563 0.816318C101.739 3.18529 102.967 5.00758 105.248 6.46541C113.321 11.3856 171.405 10.8389 193.165 10.6567C196.499 10.6567 199.132 10.6567 200.711 10.6567C201.062 10.6567 201.413 11.0211 201.413 11.3856C201.413 11.75 201.062 12.1145 200.711 12.1145C199.132 12.1145 196.499 12.1145 193.165 12.1145C185.619 12.1145 177.547 12.1145 169.475 12.1145Z" fill="#E2AE66"/>
</svg>
